<svg xmlns="http://www.w3.org/2000/svg" viewBox="0 0 512 512" width="512" height="512">
	<style>
		tspan { white-space:pre }
		.shp0 { fill: #000000 } 
	</style>
	<g id="Layer">
		<g id="Layer">
			<path id="Layer" class="shp0" d="M512,272.79c0,52.15 -23.62,100.45 -64.82,132.52c-1.47,1.15 -3.29,1.77 -5.16,1.77h-195.79c-1.87,0 -3.68,-0.62 -5.16,-1.77c-6.2,-4.82 -11.99,-10.02 -17.37,-15.54c-6.88,6.15 -14.37,11.58 -22.37,16.19c-1.28,0.74 -2.72,1.13 -4.2,1.13h-125.71c-1.47,0 -2.92,-0.39 -4.2,-1.12c-41.48,-23.94 -67.25,-68.54 -67.25,-116.38c0,-74.05 60.25,-134.3 134.29,-134.3c25.92,0 50.83,7.33 72.45,21.22c30.4,-43.24 80.63,-71.58 137.38,-71.58c92.56,0 167.87,75.31 167.87,167.87zM212.6,377.18c-23.4,-29.35 -36.34,-65.82 -36.34,-104.39c0,-29.81 7.84,-57.81 21.53,-82.1c-16.59,-10.69 -35.41,-16.94 -55.1,-18.32v24.88c0,4.63 -3.76,8.39 -8.39,8.39c-4.63,0 -8.39,-3.76 -8.39,-8.39v-24.85c-23.99,1.7 -46.01,10.63 -63.89,24.63l16.09,16.09c3.28,3.28 3.28,8.59 0,11.87c-1.64,1.64 -3.79,2.46 -5.93,2.46c-2.15,0 -4.3,-0.82 -5.94,-2.46l-16.69,-16.69c-16.6,17.3 -27.97,39.64 -31.54,64.49h23.96c4.63,0 8.39,3.76 8.39,8.39c0,4.64 -3.76,8.39 -8.39,8.39h-25.18c0,24.73 7.88,48.46 21.8,68.07l19.25,-19.25c3.28,-3.28 8.59,-3.28 11.87,0c3.28,3.28 3.28,8.59 0,11.87l-20.4,20.4c7.15,7.52 15.34,14.15 24.42,19.63h52.17v-25.18c0,-4.64 3.76,-8.39 8.39,-8.39c4.63,0 8.39,3.76 8.39,8.39v25.18h52.17c6.31,-3.8 12.25,-8.2 17.75,-13.12zM494.98,281.18h-33.34c-4.64,0 -8.39,-3.76 -8.39,-8.39c0,-4.64 3.76,-8.39 8.39,-8.39h33.33c-1.94,-35.34 -16.1,-67.48 -38.3,-92.27l-23.51,23.51c-1.64,1.64 -3.79,2.46 -5.94,2.46c-2.15,0 -4.3,-0.82 -5.94,-2.46c-3.28,-3.28 -3.28,-8.59 0,-11.87l23.51,-23.51c-24.79,-22.2 -56.93,-36.36 -92.27,-38.3v33.33c0,4.63 -3.76,8.39 -8.39,8.39c-4.64,0 -8.39,-3.76 -8.39,-8.39v-33.33c-35.34,1.95 -67.48,16.1 -92.27,38.3l23.51,23.51c3.28,3.28 3.28,8.59 0,11.87c-1.64,1.64 -3.79,2.46 -5.93,2.46c-2.15,0 -4.3,-0.82 -5.94,-2.46l-23.51,-23.51c-22.2,24.79 -36.36,56.93 -38.3,92.27h33.33c4.63,0 8.39,3.76 8.39,8.39c0,4.63 -3.76,8.39 -8.39,8.39h-33.34c1.84,33.75 14.73,65.33 36.56,90.46c0.06,0.05 0.12,0.09 0.18,0.14c0.41,0.4 0.76,0.83 1.07,1.28c0.14,0.16 0.29,0.31 0.43,0.47l23.59,-23.59c3.28,-3.28 8.59,-3.28 11.87,0c3.28,3.28 3.28,8.59 0,11.87l-23.57,23.58c1.88,1.68 3.79,3.32 5.76,4.91h86.58v-25.18c0,-4.64 3.76,-8.39 8.39,-8.39c4.64,0 8.39,3.76 8.39,8.39v25.18h86.58c1.97,-1.59 3.88,-3.23 5.76,-4.91l-23.57,-23.58c-3.28,-3.28 -3.28,-8.59 0,-11.87c3.28,-3.28 8.59,-3.28 11.87,0l23.59,23.59c22.85,-25.43 36.35,-57.75 38.23,-92.36z" />
		</g>
	</g>
	<g id="Layer">
		<g id="Layer">
			<path id="Layer" class="shp0" d="M393.07,230.38c-3.42,9.56 -21.01,57.77 -31.64,68.39c-6.34,6.34 -14.77,9.83 -23.74,9.83c-8.97,0 -17.4,-3.49 -23.74,-9.83h0c-6.34,-6.34 -9.83,-14.77 -9.83,-23.74c0,-8.97 3.49,-17.4 9.83,-23.74c10.63,-10.63 58.84,-28.23 68.39,-31.65c3.05,-1.09 6.47,-0.33 8.76,1.97c2.29,2.29 3.06,5.71 1.97,8.76zM370.84,241.88c-19.58,7.63 -40.54,16.8 -45.02,21.28c-3.17,3.17 -4.92,7.38 -4.92,11.87c0,4.48 1.75,8.7 4.92,11.87h0c3.17,3.17 7.39,4.92 11.87,4.92c4.49,0 8.7,-1.75 11.87,-4.92c4.49,-4.48 13.65,-25.44 21.28,-45.02z" />
		</g>
	</g>
	<g id="Layer">
		<g id="Layer">
			<path id="Layer" class="shp0" d="M158.66,287.08c0,7.17 -2.79,13.92 -7.87,18.99c-5.07,5.07 -11.82,7.87 -18.99,7.87c-7.17,0 -13.92,-2.79 -18.99,-7.87c-7.93,-7.93 -20.16,-41.02 -23.73,-50.98c-1.09,-3.06 -0.33,-6.47 1.97,-8.76c2.3,-2.3 5.71,-3.06 8.76,-1.97c9.96,3.56 43.05,15.8 50.98,23.73c5.07,5.07 7.87,11.82 7.87,18.99zM141.87,287.08c0,-2.69 -1.05,-5.22 -2.95,-7.12c-2.46,-2.46 -14.19,-7.87 -27.44,-13.2c5.33,13.26 10.75,24.99 13.2,27.44c1.9,1.9 4.43,2.95 7.12,2.95c2.69,0 5.22,-1.05 7.12,-2.95l0,0c1.9,-1.9 2.95,-4.43 2.95,-7.12z" />
		</g>
	</g>
	<g id="Layer">
	</g>
	<g id="Layer">
	</g>
	<g id="Layer">
	</g>
	<g id="Layer">
	</g>
	<g id="Layer">
	</g>
	<g id="Layer">
	</g>
	<g id="Layer">
	</g>
	<g id="Layer">
	</g>
	<g id="Layer">
	</g>
	<g id="Layer">
	</g>
	<g id="Layer">
	</g>
	<g id="Layer">
	</g>
	<g id="Layer">
	</g>
	<g id="Layer">
	</g>
	<g id="Layer">
	</g>
</svg>