<svg xmlns="http://www.w3.org/2000/svg" viewBox="0 0 512 512" width="512" height="512">
	<style>
		tspan { white-space:pre }
		.shp0 { fill: #000000 } 
	</style>
	<g id="Layer">
		<g id="Layer">
			<path id="Layer" class="shp0" d="M512,162.17v307.14c0,18.84 -15.3,34.16 -34.1,34.16h-443.8c-18.8,0 -34.1,-15.33 -34.1,-34.17v-307.14c0,-18.84 15.3,-34.16 34.1,-34.16h119.5v-51.2h-0.05c-18.79,0 -34.08,-15.31 -34.08,-34.13c0,-18.82 15.29,-34.13 34.08,-34.13h196.37c18.79,0 34.08,15.31 34.08,34.13c0,18.82 -15.29,34.13 -34.08,34.13h-0.05v51.2h128.03c18.8,0 34.1,15.33 34.1,34.16zM349.92,59.73c9.38,0 17.02,-7.66 17.02,-17.07c0,-9.41 -7.63,-17.07 -17.02,-17.07h-196.36c-9.38,0 -17.02,7.66 -17.02,17.07c0,9.41 7.63,17.07 17.02,17.07zM170.67,76.8v51.2h162.13v-51.2zM494.93,162.17c0,-9.43 -7.64,-17.1 -17.03,-17.1h-443.8c-9.39,0 -17.03,7.67 -17.03,17.1v307.14c0,9.43 7.64,17.1 17.03,17.1h443.8c9.39,0 17.03,-7.67 17.03,-17.1z" />
		</g>
	</g>
	<g id="Layer">
		<g id="Layer">
			<path id="Layer" class="shp0" d="M42.67,170.67c-4.71,0 -8.53,3.82 -8.53,8.53v273.2c0,4.71 3.82,8.53 8.53,8.53c4.71,0 8.53,-3.82 8.53,-8.53v-273.2c0,-4.71 -3.82,-8.53 -8.53,-8.53z" />
		</g>
	</g>
	<g id="Layer">
		<g id="Layer">
			<path id="Layer" class="shp0" d="M170.67,170.67c-4.71,0 -8.53,3.82 -8.53,8.53v273.2c0,4.71 3.82,8.53 8.53,8.53c4.71,0 8.53,-3.82 8.53,-8.53v-273.2c0,-4.71 -3.82,-8.53 -8.53,-8.53z" />
		</g>
	</g>
	<g id="Layer">
		<g id="Layer">
			<path id="Layer" class="shp0" d="M298.67,170.67c-4.71,0 -8.53,3.82 -8.53,8.53v273.2c0,4.71 3.82,8.53 8.53,8.53c4.71,0 8.53,-3.82 8.53,-8.53v-273.2c0,-4.71 -3.82,-8.53 -8.53,-8.53z" />
		</g>
	</g>
	<g id="Layer">
		<g id="Layer">
			<path id="Layer" class="shp0" d="M426.67,170.67c-4.71,0 -8.53,3.82 -8.53,8.53v273.2c0,4.71 3.82,8.53 8.53,8.53c4.71,0 8.53,-3.82 8.53,-8.53v-273.2c0,-4.71 -3.82,-8.53 -8.53,-8.53z" />
		</g>
	</g>
	<g id="Layer">
		<g id="Layer">
			<path id="Layer" class="shp0" d="M85.33,170.67c-4.71,0 -8.53,3.82 -8.53,8.53v273.2c0,4.71 3.82,8.53 8.53,8.53c4.71,0 8.53,-3.82 8.53,-8.53v-273.2c0,-4.71 -3.82,-8.53 -8.53,-8.53z" />
		</g>
	</g>
	<g id="Layer">
		<g id="Layer">
			<path id="Layer" class="shp0" d="M213.33,170.67c-4.71,0 -8.53,3.82 -8.53,8.53v273.2c0,4.71 3.82,8.53 8.53,8.53c4.71,0 8.53,-3.82 8.53,-8.53v-273.2c0,-4.71 -3.82,-8.53 -8.53,-8.53z" />
		</g>
	</g>
	<g id="Layer">
		<g id="Layer">
			<path id="Layer" class="shp0" d="M341.33,170.67c-4.71,0 -8.53,3.82 -8.53,8.53v273.2c0,4.71 3.82,8.53 8.53,8.53c4.71,0 8.53,-3.82 8.53,-8.53v-273.2c0,-4.71 -3.82,-8.53 -8.53,-8.53z" />
		</g>
	</g>
	<g id="Layer">
		<g id="Layer">
			<path id="Layer" class="shp0" d="M469.33,170.67c-4.71,0 -8.53,3.82 -8.53,8.53v273.2c0,4.71 3.82,8.53 8.53,8.53c4.71,0 8.53,-3.82 8.53,-8.53v-273.2c0,-4.71 -3.82,-8.53 -8.53,-8.53z" />
		</g>
	</g>
	<g id="Layer">
		<g id="Layer">
			<path id="Layer" class="shp0" d="M128,170.67c-4.71,0 -8.53,3.82 -8.53,8.53v273.2c0,4.71 3.82,8.53 8.53,8.53c4.71,0 8.53,-3.82 8.53,-8.53v-273.2c0,-4.71 -3.82,-8.53 -8.53,-8.53z" />
		</g>
	</g>
	<g id="Layer">
		<g id="Layer">
			<path id="Layer" class="shp0" d="M256,170.67c-4.71,0 -8.53,3.82 -8.53,8.53v273.2c0,4.71 3.82,8.53 8.53,8.53c4.71,0 8.53,-3.82 8.53,-8.53v-273.2c0,-4.71 -3.82,-8.53 -8.53,-8.53z" />
		</g>
	</g>
	<g id="Layer">
		<g id="Layer">
			<path id="Layer" class="shp0" d="M384,170.67c-4.71,0 -8.53,3.82 -8.53,8.53v273.2c0,4.71 3.82,8.53 8.53,8.53c4.71,0 8.53,-3.82 8.53,-8.53v-273.2c0,-4.71 -3.82,-8.53 -8.53,-8.53z" />
		</g>
	</g>
	<g id="Layer">
	</g>
	<g id="Layer">
	</g>
	<g id="Layer">
	</g>
	<g id="Layer">
	</g>
	<g id="Layer">
	</g>
	<g id="Layer">
	</g>
	<g id="Layer">
	</g>
	<g id="Layer">
	</g>
	<g id="Layer">
	</g>
	<g id="Layer">
	</g>
	<g id="Layer">
	</g>
	<g id="Layer">
	</g>
	<g id="Layer">
	</g>
	<g id="Layer">
	</g>
	<g id="Layer">
	</g>
</svg>