<?xml version="1.0" encoding="utf-8"?>
<!-- Generator: Adobe Illustrator 21.0.0, SVG Export Plug-In . SVG Version: 6.00 Build 0)  -->
<svg version="1.0" id="Capa_1" xmlns="http://www.w3.org/2000/svg" xmlns:xlink="http://www.w3.org/1999/xlink" x="0px" y="0px"
	 viewBox="0 0 378.9 331.6" style="enable-background:new 0 0 378.9 331.6;" xml:space="preserve">
<g>
	<path d="M348.2,30.8C328.3,10.9,301.8,0,273.7,0c-28.1,0-54.6,10.9-74.4,30.8l-9.8,9.8l-9.8-9.8C159.8,10.9,133.3,0,105.2,0
		S50.7,10.9,30.8,30.8c-41,41.1-41,107.8,0,148.9l147.1,147.1c2.4,2.4,5.4,3.9,8.5,4.5c1,0.2,2.1,0.3,3.2,0.3
		c4.2,0,8.3-1.6,11.5-4.8l147.1-147.1C389.2,138.7,389.2,71.9,348.2,30.8z M325.2,156.7L189.5,292.4L53.8,156.7
		c-28.4-28.4-28.4-74.5,0-102.9c13.7-13.7,32-21.3,51.4-21.3s37.7,7.6,51.4,21.3L178,75.1c6.1,6.1,16.9,6.1,23,0l21.3-21.3
		c13.7-13.7,32-21.3,51.4-21.3s37.7,7.6,51.4,21.3C353.5,82.2,353.5,128.4,325.2,156.7z"/>
</g>
</svg>
