<?xml version="1.0" encoding="utf-8"?>
<!-- Generator: Adobe Illustrator 21.0.0, SVG Export Plug-In . SVG Version: 6.00 Build 0)  -->
<svg version="1.0" id="Слой_1" xmlns="http://www.w3.org/2000/svg" xmlns:xlink="http://www.w3.org/1999/xlink" x="0px" y="0px"
	 viewBox="0 0 35.3 30.5" style="enable-background:new 0 0 35.3 30.5;" xml:space="preserve">
<path d="M31,2.9H4.3c-0.6,0-1-0.4-1-1s0.4-1,1-1H31c0.6,0,1,0.4,1,1S31.5,2.9,31,2.9z"/>
<path d="M17.6,26.6c-0.6,0-1-0.4-1-1V1c0-0.6,0.4-1,1-1s1,0.4,1,1v24.6C18.6,26.1,18.2,26.6,17.6,26.6z"/>
<path d="M24.5,30.5H10.8c-0.3,0-0.6-0.2-0.8-0.4c-0.2-0.3-0.2-0.6-0.1-0.9l1.4-3.9c0.1-0.4,0.5-0.7,0.9-0.7h10.9
	c0.4,0,0.8,0.3,0.9,0.7l1.4,3.9c0.1,0.3,0.1,0.6-0.1,0.9C25.1,30.3,24.8,30.5,24.5,30.5z"/>
<g>
	<path d="M35.3,15.5L29.1,2.7h-1.2l-6.2,12.8l0,0v1c0,3.8,3.1,6.9,6.8,6.9s6.8-3.1,6.8-6.9V15.5L35.3,15.5z M28.5,5.7l4.4,9.8h-8.8
		L28.5,5.7z"/>
	<path d="M13.7,15.5L7.4,2.7H6.2L0,15.5l0,0v1c0,3.8,3.1,6.9,6.8,6.9s6.8-3.1,6.8-6.9L13.7,15.5L13.7,15.5z M6.8,5.7l4.4,9.8H2.5
		L6.8,5.7z"/>
</g>
</svg>
