<?xml version="1.0" encoding="utf-8"?>
<!-- Generator: Adobe Illustrator 21.0.0, SVG Export Plug-In . SVG Version: 6.00 Build 0)  -->
<svg version="1.0" id="Слой_1" xmlns="http://www.w3.org/2000/svg" xmlns:xlink="http://www.w3.org/1999/xlink" x="0px" y="0px"
	 viewBox="0 0 610.7 221.6" style="enable-background:new 0 0 610.7 221.6;" xml:space="preserve">
<style type="text/css">
	.st0{fill:#7D9282;}
	.st1{fill:#C88E83;}
	.st2{fill:#CC686B;}
	.st3{fill:#ED174C;}
	.st4{fill:#00BAB5;}
	.st5{fill:#4D9885;}
	.st6{fill:#1AB9A0;}
</style>
<g>
	<g>
		<path class="st0" d="M381.6,107.4l0.1-1.9c0.1-2.5,0.5-5,0.9-7.4l0.6-3.7c0.2-1.2,0.4-2.5,0.8-3.6l2-7.2
			c3.2-9.4,7.4-18.4,12.9-26.5c2.8-4,5.9-7.8,9.1-11.3l-7.8-7.8c-3.7,4.2-7.1,8.6-10.2,13.3c-5.8,9.1-10.3,19.1-13.5,29.5l-1.9,7.9
			c-0.4,1.3-0.6,2.7-0.8,4l-0.6,4.1c-0.4,2.7-0.8,5.4-0.8,8.1l-0.1,2.6L381.6,107.4L381.6,107.4z"/>
		<path class="st1" d="M416.2,37.9c0.8-0.7,1.6-1.5,2.4-2.2c7.5-5.9,15.5-11,24.1-14.5c2-1.1,4.3-1.6,6.4-2.4
			c2.2-0.7,4.3-1.6,6.5-2.1s4.4-1.1,6.6-1.6s4.3-0.6,6.4-1c2.8-0.5,6-0.7,9.2-0.8V0.1c-3.4,0.2-6.8,0.4-10.7,1.2
			c-10.3,1.4-19.8,4.6-29.4,8.8c-9.5,4.2-18.3,10.2-26.4,16.9c-1.1,0.9-2.1,1.9-3.1,2.9L416.2,37.9z"/>
		<path class="st2" d="M488.9,13.5c1.9,0.1,3.8,0.1,5.7,0.5c16.7,2.2,31.7,8.5,43.7,16.7c3.9,2.7,7.5,5.6,10.8,8.7l10.9-11
			c-4.1-3.6-8.5-7.1-13.3-10.2c-14.1-9.1-31.5-15.8-50.5-17.8c-2.4-0.3-4.8-0.3-7.2-0.4l0,0v13.5C489,13.5,488.9,13.5,488.9,13.5z"
			/>
		<path class="st3" d="M568,36.2l-11.1,11.1c3.3,3.9,6.3,7.8,8.8,11.7c6.5,9.9,9.9,19.7,12.1,27.8c0.5,2,1,4,1.4,5.8s0.5,3.4,0.7,5
			c0.2,1.5,0.4,3,0.6,4.3c0.2,1.3,0.1,2.8,0.2,4c0,0.5,0,1,0.1,1.5h17.7c0-0.7-0.1-1.5-0.2-2.4c-0.1-1.3-0.1-2.5-0.3-4.2
			c-0.3-1.7-0.6-3.5-0.9-5.5c-0.3-2-0.6-4.1-1.1-6.3c-0.6-2.1-1.2-4.4-1.8-6.8c-2.8-9.4-7.2-20.8-15-32.1
			C576,45.5,572.3,40.8,568,36.2z"/>
		<path class="st4" d="M585.8,140.5c-0.1,0.3-0.1,0.5-0.2,0.8c-2.6,8.7-6.6,19.2-13.8,29.6c-2.9,4.2-6.2,8.5-10,12.6l1.5,1.5
			c3.8-4.3,7.1-8.8,9.9-13.2c7-10.8,10.8-21.5,13.2-30.3c0.1-0.3,0.2-0.6,0.2-1L585.8,140.5L585.8,140.5z"/>
		<path class="st4" d="M553.7,191.3c-3.7,3.2-7.6,6.3-12,9.1c-13,8.4-29.1,14.5-46.5,16.3c-2,0.3-4.2,0.2-6.3,0.4v4.3
			c2.2-0.2,4.4-0.2,6.6-0.5c18.4-2.4,34.6-9.2,47.8-18.1c4.4-3,8.4-6.3,12.1-9.8L553.7,191.3z"/>
		<path class="st5" d="M401.8,186.6l4.8-4.8c-3.3-3.7-6.3-7.7-9-11.9c-5.4-8.4-9.4-17.6-12.4-27.2c-2.2-8-3.3-15.7-3.8-24.1h-8.8
			c0.7,8.7,2.1,18,4.8,26.5c3.4,10.3,8.1,20,14.1,28.9C394.8,178.4,398.2,182.6,401.8,186.6z"/>
		<path class="st6" d="M477.8,217c-3.2-0.2-6.4-0.4-9.6-1.1c-9.2-1.2-18.1-4.3-26.9-8.1c-8.7-3.9-16.8-9.4-24.3-15.6
			c-0.9-0.8-1.7-1.6-2.5-2.4l-4.6,4.6c1,0.9,2,1.8,3,2.7c8.2,6.4,16.9,12,26.2,15.8c9.3,3.8,18.8,6.7,28.4,7.8
			c3.4,0.6,6.9,0.8,10.3,0.9V217z"/>
	</g>
	<g>
		<polygon class="st3" points="543.3,91.4 529.9,114.7 505.8,114.7 533.4,67 515.2,67 478.8,129.9 493.1,129.9 497.1,129.9 
			521.1,129.9 501.4,164 519.6,164 561.5,91.4 		"/>
		<path class="st3" d="M415.3,146.2h54.1l9.5-16.4h-26.5l18.9-20.9l0.5-0.6c3.8-5.1,5.8-11.2,5.8-17.6c0-16.2-13.2-29.4-29.4-29.4
			c-16.2,0-29.4,13.2-29.4,29.4h16.4c0-7.2,5.8-13,13-13s13,5.8,13,13c0,2.7-0.8,5.3-2.4,7.5L415.3,146.2z"/>
	</g>
	<polygon class="st3" points="610.7,123.1 535.2,129.5 532.6,123.1 535.2,116.7 	"/>
	<g>
		<g>
			<path d="M28.9,71.4h15.8l28.9,82.5H58.3l-7.1-21.2H22.3l-7,21.2H0L28.9,71.4z M47.5,120.5l-7.3-22.1C38.8,93.8,37,85.7,37,85.7
				h-0.2c0,0-1.9,8.1-3.3,12.8l-7.5,22H47.5z"/>
			<path d="M90,71.4h15v52.8c0,11.2,7.2,17.4,18.2,17.4s18.2-6.3,18.2-17.4V71.4h15v52.9c0,18.5-13.3,31-33.1,31
				c-20,0-33.4-12.6-33.4-31V71.4H90z"/>
			<path d="M202,84.3h-27.1V71.4h69v12.9h-27.1v69.6H202V84.3z"/>
			<path d="M298.1,70c25,0,42.7,18.5,42.7,42.1c0,24.3-17.7,43.2-42.7,43.2s-42.7-18.9-42.7-43.2C255.5,88.5,273.2,70,298.1,70z
				 M298.1,141.6c15.8,0,27.2-12.8,27.2-29.5c0-16-11.4-28.4-27.2-28.4c-15.8,0-27.2,12.3-27.2,28.4
				C270.9,128.8,282.3,141.6,298.1,141.6z"/>
		</g>
	</g>
</g>
</svg>
