<svg xmlns="http://www.w3.org/2000/svg" viewBox="0 0 512 512" width="512" height="512">
	<style>
		tspan { white-space:pre }
		.shp0 { fill: #000000 } 
	</style>
	<g id="Layer">
		<g id="Layer">
			<path id="Layer" class="shp0" d="M512,170.67v93.87c0,18.82 -15.31,34.13 -34.12,34.13h-59.75c-18.81,0 -34.12,-15.31 -34.12,-34.13v-76.8h-42.67v9.39c19.45,3.96 34.13,21.19 34.13,41.8v162.16c0,23.52 -19.13,42.65 -42.64,42.65h-170.72c-23.51,0 -42.64,-19.13 -42.64,-42.65v-162.16c0,-20.6 14.68,-37.84 34.13,-41.8v-9.39h-110.98c-14.09,0 -25.55,-11.48 -25.55,-25.6c0,-14.12 11.46,-25.6 25.55,-25.6h110.98v-8.53c0,-4.71 3.82,-8.53 8.53,-8.53h26.22c4.16,-28.91 29.07,-51.2 59.12,-51.2c30.04,0 54.96,22.29 59.12,51.2h26.22c4.71,0 8.53,3.82 8.53,8.53v8.53h68.27c1,0 1.94,0.2 2.82,0.52c1.86,-0.31 3.75,-0.52 5.7,-0.52h59.75c18.82,0 34.13,15.31 34.13,34.14zM205.66,119.47h83.61c-3.96,-19.45 -21.2,-34.13 -41.81,-34.13c-20.61,0 -37.84,14.68 -41.81,34.13zM170.67,196.27h153.6v-59.73h-153.6zM42.62,170.67h110.98v-17.07h-110.98c-4.68,0 -8.48,3.83 -8.48,8.53c0,4.78 3.73,8.53 8.48,8.53zM332.83,213.33h-170.72c-14.1,0 -25.57,11.48 -25.57,25.59v162.16c0,14.11 11.47,25.59 25.57,25.59h170.72c14.1,0 25.57,-11.48 25.57,-25.59v-162.16c0,-14.11 -11.47,-25.59 -25.57,-25.59zM388.62,153.6h-47.28v17.07h42.67c0,-6.22 1.7,-12.04 4.62,-17.07zM494.93,170.67c0,-9.41 -7.65,-17.07 -17.06,-17.07h-59.75c-9.4,0 -17.06,7.66 -17.06,17.07v93.87c0,9.41 7.65,17.07 17.06,17.07h59.75c9.41,0 17.06,-7.66 17.06,-17.07z" />
		</g>
	</g>
	<g id="Layer">
		<g id="Layer">
			<path id="Layer" class="shp0" d="M85.33,290.13c0,23.53 -19.14,42.67 -42.67,42.67c-23.53,0 -42.67,-19.14 -42.67,-42.67c0,-20.47 29.69,-64.5 35.65,-73.12c1.59,-2.31 4.22,-3.68 7.02,-3.68c2.8,0 5.43,1.38 7.02,3.68c5.95,8.62 35.64,52.64 35.65,73.12zM68.27,290.13c0,-9.32 -13.32,-33.64 -25.6,-52.84c-12.28,19.19 -25.6,43.51 -25.6,52.84c0,14.12 11.48,25.6 25.6,25.6c14.12,0 25.6,-11.48 25.6,-25.6z" />
		</g>
	</g>
	<g id="Layer">
	</g>
	<g id="Layer">
	</g>
	<g id="Layer">
	</g>
	<g id="Layer">
	</g>
	<g id="Layer">
	</g>
	<g id="Layer">
	</g>
	<g id="Layer">
	</g>
	<g id="Layer">
	</g>
	<g id="Layer">
	</g>
	<g id="Layer">
	</g>
	<g id="Layer">
	</g>
	<g id="Layer">
	</g>
	<g id="Layer">
	</g>
	<g id="Layer">
	</g>
	<g id="Layer">
	</g>
</svg>