<svg xmlns="http://www.w3.org/2000/svg" viewBox="0 0 512 512" width="512" height="512">
	<style>
		tspan { white-space:pre }
		.shp0 { fill: #000000 } 
	</style>
	<g id="Layer">
		<g id="Layer">
			<path id="Layer" class="shp0" d="M512,256c0,141.16 -114.84,256 -256,256c-141.16,0 -256,-114.84 -256,-256c0,-141.16 114.84,-256 256,-256c141.16,0 256,114.84 256,256zM494.35,256c0,-131.42 -106.92,-238.34 -238.35,-238.34c-131.43,0 -238.34,106.92 -238.34,238.35c0,131.42 106.92,238.35 238.35,238.35c131.43,0 238.35,-106.92 238.35,-238.35z" />
		</g>
	</g>
	<g id="Layer">
		<g id="Layer">
			<path id="Layer" class="shp0" d="M423.72,256c0,92.48 -75.24,167.72 -167.72,167.72c-92.48,0 -167.72,-75.24 -167.72,-167.72c0,-92.48 75.24,-167.72 167.72,-167.72c92.48,0 167.72,75.24 167.72,167.72zM406.07,256c0,-82.75 -67.32,-150.07 -150.07,-150.07c-82.75,0 -150.07,67.32 -150.07,150.07c0,82.75 67.32,150.07 150.07,150.07c82.75,0 150.07,-67.32 150.07,-150.07z" />
		</g>
	</g>
	<g id="Layer">
		<g id="Layer">
			<path id="Layer" class="shp0" d="M308.97,256c0,29.21 -23.76,52.97 -52.97,52.97c-29.21,0 -52.97,-23.76 -52.97,-52.97c0,-29.21 23.76,-52.97 52.97,-52.97c29.2,0 52.97,23.76 52.97,52.97zM291.31,256c0,-19.47 -15.84,-35.31 -35.31,-35.31c-19.47,0 -35.31,15.84 -35.31,35.31c0,19.47 15.84,35.31 35.31,35.31c19.47,0 35.31,-15.84 35.31,-35.31z" />
		</g>
	</g>
	<g id="Layer">
		<g id="Layer">
			<path id="Layer" class="shp0" d="M199.82,174.85c-6.88,-6.88 -18.08,-6.88 -24.97,0c-3.34,3.34 -5.17,7.77 -5.17,12.49c0,4.72 1.84,9.15 5.17,12.48c3.44,3.44 7.96,5.16 12.48,5.16c4.52,0 9.04,-1.72 12.49,-5.16c0,0 0,0 0,0c6.88,-6.88 6.88,-18.08 0,-24.97z" />
		</g>
	</g>
	<g id="Layer">
		<g id="Layer">
			<path id="Layer" class="shp0" d="M176.55,256c0,-9.76 -7.89,-17.65 -17.65,-17.65c-9.76,0 -17.65,7.89 -17.65,17.65c0,9.76 7.89,17.65 17.66,17.65c9.76,0 17.66,-7.89 17.66,-17.65z" />
		</g>
	</g>
	<g id="Layer">
		<g id="Layer">
			<path id="Layer" class="shp0" d="M273.65,158.9c0,-9.76 -7.89,-17.65 -17.65,-17.65c-9.76,0 -17.65,7.89 -17.65,17.66c0,9.76 7.89,17.66 17.65,17.66c9.76,0 17.65,-7.89 17.65,-17.65z" />
		</g>
	</g>
	<g id="Layer">
		<g id="Layer">
			<path id="Layer" class="shp0" d="M337.15,174.85c-3.34,-3.33 -7.77,-5.17 -12.49,-5.17c-4.71,0 -9.15,1.84 -12.48,5.17c-3.34,3.34 -5.17,7.77 -5.17,12.49c0,4.72 1.84,9.15 5.17,12.48l0,0c0,0 0,0 0,0c3.33,3.33 7.77,5.17 12.48,5.17c4.72,0 9.15,-1.84 12.49,-5.17c6.88,-6.88 6.88,-18.08 0,-24.97z" />
		</g>
	</g>
	<g id="Layer">
		<g id="Layer">
			<path id="Layer" class="shp0" d="M199.82,312.18c0,0 0,0 0,0c-6.88,-6.88 -18.08,-6.88 -24.97,0c-6.88,6.88 -6.88,18.08 0,24.97c3.44,3.44 7.96,5.16 12.48,5.16c4.52,0 9.04,-1.72 12.49,-5.16c6.88,-6.88 6.88,-18.08 0,-24.97z" />
		</g>
	</g>
	<g id="Layer">
		<g id="Layer">
			<path id="Layer" class="shp0" d="M370.76,256c0,-9.76 -7.89,-17.65 -17.65,-17.65c-9.76,0 -17.65,7.89 -17.65,17.65c0,9.76 7.89,17.65 17.65,17.65c9.76,0 17.65,-7.89 17.65,-17.65z" />
		</g>
	</g>
	<g id="Layer">
		<g id="Layer">
			<path id="Layer" class="shp0" d="M337.15,312.18c-3.34,-3.33 -7.77,-5.17 -12.49,-5.17c-4.72,0 -9.15,1.84 -12.49,5.17c-6.88,6.88 -6.88,18.08 0,24.97c3.33,3.33 7.77,5.17 12.49,5.17c4.72,0 9.15,-1.84 12.49,-5.17c6.88,-6.88 6.88,-18.08 0,-24.97z" />
		</g>
	</g>
	<g id="Layer">
		<g id="Layer">
			<path id="Layer" class="shp0" d="M273.65,353.1c0,-9.76 -7.89,-17.65 -17.65,-17.65c-9.76,0 -17.65,7.89 -17.65,17.65c0,9.76 7.89,17.65 17.65,17.65c9.76,0 17.65,-7.89 17.65,-17.65z" />
		</g>
	</g>
	<g id="Layer">
	</g>
	<g id="Layer">
	</g>
	<g id="Layer">
	</g>
	<g id="Layer">
	</g>
	<g id="Layer">
	</g>
	<g id="Layer">
	</g>
	<g id="Layer">
	</g>
	<g id="Layer">
	</g>
	<g id="Layer">
	</g>
	<g id="Layer">
	</g>
	<g id="Layer">
	</g>
	<g id="Layer">
	</g>
	<g id="Layer">
	</g>
	<g id="Layer">
	</g>
	<g id="Layer">
	</g>
</svg>