<svg xmlns="http://www.w3.org/2000/svg" viewBox="0 0 491 491" width="500" height="500">
	<style>
		tspan { white-space:pre }
		.shp0 { fill: #ed174c } 
	</style>
	<g id="Layer">
		<g id="Layer">
			<path id="Layer" class="shp0" d="M270.42,245.34l42,-42c7.3,-7.1 7.3,-18.5 0.2,-25.5c-7,-7 -18.4,-7 -25.5,0l-42,42l-42,-42c-7,-7 -18.4,-7 -25.5,0c-7,7 -7,18.4 0,25.5l42,42l-42,42c-7,7 -7,18.4 0,25.5c3.5,3.5 8.1,5.3 12.7,5.3c4.6,0 9.2,-1.8 12.7,-5.3l42,-42l42,42c3.5,3.5 8.1,5.3 12.7,5.3c4.6,0 9.2,-1.8 12.7,-5.3c7,-7 7,-18.4 0,-25.5z" />
		</g>
	</g>
	<g id="Layer">
		<g id="Layer">
			<path id="Layer" class="shp0" d="M418.62,71.84c-7,-7 -18.4,-7 -25.4,0l-56,55.9c-7,7 -7,18.4 0,25.5c7,7 18.4,7 25.5,0l42.7,-42.7c69.2,82.1 65.1,205.3 -12.2,282.6c-39.5,39.5 -92.1,61.3 -148,61.3c-55.9,0 -108.4,-21.7 -148,-61.2c-81.6,-81.6 -81.6,-214.3 0,-295.9c50.1,-50.1 121.6,-71.4 191.1,-56.8c9.7,2 19.3,-4.2 21.3,-13.9c2,-9.7 -4.2,-19.3 -13.9,-21.3c-81.4,-17.2 -165.1,7.7 -223.9,66.5c-46.3,46.3 -71.8,107.9 -71.8,173.4c0,65.5 25.5,127.1 71.8,173.4c46.3,46.3 107.9,71.8 173.4,71.8c65.5,0 127.1,-25.5 173.4,-71.8c46.3,-46.3 71.8,-107.9 71.8,-173.4c0,-65.5 -25.5,-127.1 -71.8,-173.4z" />
		</g>
	</g>
	<g id="Layer">
	</g>
	<g id="Layer">
	</g>
	<g id="Layer">
	</g>
	<g id="Layer">
	</g>
	<g id="Layer">
	</g>
	<g id="Layer">
	</g>
	<g id="Layer">
	</g>
	<g id="Layer">
	</g>
	<g id="Layer">
	</g>
	<g id="Layer">
	</g>
	<g id="Layer">
	</g>
	<g id="Layer">
	</g>
	<g id="Layer">
	</g>
	<g id="Layer">
	</g>
	<g id="Layer">
	</g>
</svg>