<svg xmlns="http://www.w3.org/2000/svg" viewBox="0 0 302 302" width="300" height="300">
	<style>
		tspan { white-space:pre }
		.shp0 { fill: #ed174b } 
	</style>
	<path id="Layer" class="shp0" d="M301.2,150.6c0,83.2 -67.4,150.6 -150.6,150.6c-83.2,0 -150.6,-67.4 -150.6,-150.6c0,-83.2 67.4,-150.6 150.6,-150.6c83.1,0 150.6,67.4 150.6,150.6zM167.6,150.6l49,-49c4.7,-4.7 4.7,-12.3 0,-17c-4.7,-4.7 -12.3,-4.7 -17,0l-49,49l-49,-49c-4.7,-4.7 -12.3,-4.7 -17,0c-4.7,4.7 -4.7,12.3 0,17l49,49l-49,49c-4.7,4.7 -4.7,12.3 0,17c2.4,2.3 5.4,3.5 8.5,3.5c3.1,0 6.2,-1.2 8.5,-3.5l49,-49l49,49c2.4,2.3 5.4,3.5 8.5,3.5c3.1,0 6.2,-1.2 8.5,-3.5c4.7,-4.7 4.7,-12.3 0,-17z" />
</svg>