<svg xmlns="http://www.w3.org/2000/svg" viewBox="0 0 549 549" width="549" height="549">
	<style>
		tspan { white-space:pre }
		.shp0 { fill: #45938b } 
	</style>
	<g id="Layer">
		<g id="Layer">
			<path id="Layer" class="shp0" d="M548.18,100.5v347.17c0,12.57 -4.48,23.32 -13.42,32.26c-8.95,8.95 -19.7,13.42 -32.26,13.42h-456.81c-12.56,0 -23.31,-4.47 -32.26,-13.42c-8.95,-8.95 -13.42,-19.7 -13.42,-32.26v-347.17c0,-12.56 4.47,-23.31 13.42,-32.26c8.95,-8.95 19.7,-13.42 32.26,-13.42h456.82c12.56,0 23.31,4.47 32.26,13.42c8.94,8.95 13.42,19.7 13.42,32.26zM511.63,447.68v-173.59h-475.08v173.58c0,2.48 0.91,4.61 2.71,6.43c1.81,1.81 3.95,2.71 6.42,2.71h456.82c2.47,0 4.61,-0.9 6.42,-2.7c1.81,-1.81 2.71,-3.95 2.71,-6.43zM511.63,164.45v-63.95c0,-2.47 -0.9,-4.61 -2.71,-6.42c-1.81,-1.81 -3.95,-2.71 -6.42,-2.71h-456.81c-2.47,0 -4.61,0.91 -6.42,2.71c-1.81,1.81 -2.71,3.95 -2.71,6.42v63.95z" />
			<path id="Layer" class="shp0" d="M73.09,420.27h73.09v-36.55h-73.09z" />
			<path id="Layer" class="shp0" d="M182.73,420.27h109.63v-36.55h-109.63z" />
		</g>
	</g>
	<g id="Layer">
	</g>
	<g id="Layer">
	</g>
	<g id="Layer">
	</g>
	<g id="Layer">
	</g>
	<g id="Layer">
	</g>
	<g id="Layer">
	</g>
	<g id="Layer">
	</g>
	<g id="Layer">
	</g>
	<g id="Layer">
	</g>
	<g id="Layer">
	</g>
	<g id="Layer">
	</g>
	<g id="Layer">
	</g>
	<g id="Layer">
	</g>
	<g id="Layer">
	</g>
	<g id="Layer">
	</g>
</svg>
