<?xml version="1.0" encoding="utf-8"?>
<!-- Generator: Adobe Illustrator 21.0.0, SVG Export Plug-In . SVG Version: 6.00 Build 0)  -->
<svg version="1.0" id="Capa_1" xmlns="http://www.w3.org/2000/svg" xmlns:xlink="http://www.w3.org/1999/xlink" x="0px" y="0px"
	 viewBox="0 0 512 336" style="enable-background:new 0 0 512 336;" xml:space="preserve">
<g>
	<g>
		<path d="M315,80H45c-24.8,0-45,20.2-45,45c0,25.5,0,141.3,0,166c0,24.8,20.2,45,45,45h270c24.8,0,45-20.2,45-45
			c0-17.5,0-148.6,0-166C360,100.2,339.8,80,315,80z M235,281c-11,0-20-9-20-20s9-20,20-20s20,9,20,20S246,281,235,281z M285,281
			c-11,0-20-9-20-20s9-20,20-20s20,9,20,20S296,281,285,281z M330,191H30v-20h300V191z"/>
	</g>
</g>
<g>
	<g>
		<path d="M467,0H197c-24.8,0-45,20.2-45,45v5h163c41.4,0,75,33.6,75,75v131h77c24.8,0,45-20.2,45-45V45C512,20.2,491.8,0,467,0z"/>
	</g>
</g>
</svg>
