<?xml version="1.0" encoding="utf-8"?>
<!-- Generator: Adobe Illustrator 21.0.0, SVG Export Plug-In . SVG Version: 6.00 Build 0)  -->
<svg version="1.0" id="Capa_1" xmlns="http://www.w3.org/2000/svg" xmlns:xlink="http://www.w3.org/1999/xlink" x="0px" y="0px"
	 viewBox="0 0 600 430.1" style="enable-background:new 0 0 600 430.1;" xml:space="preserve">
<g fill="#79cfc5">
	<path d="M1.5,286.6V26.2C1.5,11.7,13.2,0,27.7,0h280.3c14.5,0,26.2,11.7,26.2,26.2v260.4c0,4.8-3.9,8.7-8.7,8.7H10.2
		C5.4,295.3,1.5,291.4,1.5,286.6z M231.6,375.8c0,30-24.3,54.3-54.3,54.3S123,405.8,123,375.8c0-30,24.3-54.3,54.3-54.3
		S231.6,345.8,231.6,375.8z M204.5,375.8c0-15-12.2-27.2-27.2-27.2s-27.2,12.2-27.2,27.2s12.2,27.2,27.2,27.2
		S204.5,390.8,204.5,375.8z M130.5,321.4H8.7c-4.8,0-8.7,3.9-8.7,8.7v26.5c0,4.8,3.9,8.7,8.7,8.7h97.6
		C108.9,347.9,117.7,332.5,130.5,321.4z M515.9,375.8c0,30-24.3,54.3-54.3,54.3c-30,0-54.3-24.3-54.3-54.3c0-30,24.3-54.3,54.3-54.3
		C491.6,321.4,515.9,345.8,515.9,375.8z M488.8,375.8c0-15-12.2-27.2-27.2-27.2c-15,0-27.2,12.2-27.2,27.2s12.2,27.2,27.2,27.2
		S488.8,390.8,488.8,375.8z M600,330.2v26.5c0,4.8-3.9,8.7-8.7,8.7h-58.7c-5.1-34.7-34.9-61.4-71-61.4c-36.1,0-65.9,26.7-71,61.4
		H248.3c-2.5-17.5-11.4-32.9-24.2-44h135V71.7c0-9.6,7.8-17.5,17.5-17.5H459c23.2,0,44.9,11.5,57.9,30.8l53.2,78.7
		c7.8,11.5,12,25.2,12,39.1v118.7h9.3C596.1,321.4,600,325.4,600,330.2z M523.4,165.7l-42.5-60.4c-1.6-2.3-4.3-3.7-7.1-3.7h-66.3
		c-4.8,0-8.7,3.9-8.7,8.7v60.4c0,4.8,3.9,8.7,8.7,8.7h108.8C523.3,179.5,527.5,171.5,523.4,165.7z"/>
</g>
</svg>
