<?xml version="1.0" encoding="utf-8"?>
<!-- Generator: Adobe Illustrator 21.0.0, SVG Export Plug-In . SVG Version: 6.00 Build 0)  -->
<svg version="1.0" id="Capa_1" xmlns="http://www.w3.org/2000/svg" xmlns:xlink="http://www.w3.org/1999/xlink" x="0px" y="0px"
	 viewBox="0 0 372.1 512" style="enable-background:new 0 0 372.1 512;" xml:space="preserve">
<g>
	<g>
		<path fill="#45938b" d="M357.1,0H63.5c-8.3,0-15,6.7-15,15v30.9H15c-8.3,0-15,6.7-15,15V497c0,8.3,6.7,15,15,15h293.6c8.3,0,15-6.7,15-15v-30.9
			h33.5c8.3,0,15-6.7,15-15V15C372.1,6.7,365.4,0,357.1,0z M293.6,482H30v-53.1h263.6V482z M293.6,398.9H30v-323h263.6V398.9z
			 M342.1,436.1h-18.5V383h18.5V436.1z M342.1,353h-18.5V60.9c0-8.3-6.7-15-15-15H78.5V30h263.6L342.1,353L342.1,353z"/>
	</g>
</g>
<g>
	<g>
		<path fill="#45938b" d="M216.1,148.4H107.5c-8.3,0-15,6.7-15,15s6.7,15,15,15h108.6c8.3,0,15-6.7,15-15S224.4,148.4,216.1,148.4z"/>
	</g>
</g>
<g>
	<g>
		<path fill="#45938b" d="M237.6,236.9H86c-8.3,0-15,6.7-15,15s6.7,15,15,15h151.7c8.3,0,15-6.7,15-15S245.9,236.9,237.6,236.9z"/>
	</g>
</g>
<g>
	<g>
		<path fill="#45938b" d="M237.6,280.4H86c-8.3,0-15,6.7-15,15s6.7,15,15,15h151.7c8.3,0,15-6.7,15-15S245.9,280.4,237.6,280.4z"/>
	</g>
</g>
<g>
	<g>
		<path fill="#45938b" d="M237.6,323.9H86c-8.3,0-15,6.7-15,15s6.7,15,15,15h151.7c8.3,0,15-6.7,15-15S245.9,323.9,237.6,323.9z"/>
	</g>
</g>
</svg>
