<svg xmlns="http://www.w3.org/2000/svg" viewBox="0 0 512 512" width="512" height="512">
	<style>
		tspan { white-space:pre }
		.shp0 { fill: #000000 } 
	</style>
	<g id="Layer">
		<g id="Layer">
			<path id="Layer" class="shp0" d="M342.62,183.2l-68.23,102.34h20.9c21.76,0 39.47,17.67 39.47,39.38c0,7.28 -2.03,14.08 -5.49,19.94c19.67,2.15 35.03,18.87 35.03,39.14c0,8.41 -2.67,16.19 -7.17,22.6c21.32,7.28 36.7,27.5 36.7,51.25v44.31c0,5.44 -4.41,9.85 -9.85,9.85h-324.92c-5.44,0 -9.85,-4.41 -9.85,-9.85v-44.31c0,-23.75 15.38,-43.96 36.71,-51.25c-4.5,-6.41 -7.17,-14.19 -7.17,-22.6c0,-20.26 15.36,-36.99 35.03,-39.14c-3.46,-5.86 -5.49,-12.66 -5.49,-19.94c0,-21.72 17.71,-39.38 39.47,-39.38h34.31l105.36,-143.67c0.32,-0.43 0.69,-0.81 1.06,-1.17c-8.13,-13.86 -12.81,-29.97 -12.81,-47.16c0,-51.58 41.96,-93.54 93.54,-93.54c51.58,0 93.54,41.96 93.54,93.54c0,51.58 -41.96,93.54 -93.54,93.54c-9.24,0 -18.17,-1.37 -26.61,-3.88zM295.39,93.54c0,40.72 33.13,73.85 73.85,73.85c40.72,0 73.85,-33.13 73.85,-73.85c0,-40.72 -33.13,-73.85 -73.85,-73.85c-40.72,0 -73.85,33.13 -73.85,73.85zM339.67,423.38h-236.26c-19.01,0 -34.48,15.46 -34.48,34.46v34.46h305.23v-34.46c0,-19 -15.47,-34.46 -34.48,-34.46zM118.08,364.31c-10.82,0 -19.62,8.83 -19.62,19.69c0,10.86 8.8,19.69 19.62,19.69h206.91c10.82,0 19.62,-8.83 19.62,-19.69c0,-10.86 -8.8,-19.69 -19.62,-19.69zM147.78,305.23c-10.91,0 -19.78,8.83 -19.78,19.69c0,10.86 8.87,19.69 19.78,19.69h147.52c10.91,0 19.78,-8.83 19.78,-19.69c0,-10.86 -8.87,-19.69 -19.78,-19.69zM324.12,175.45c-8.76,-4.85 -16.67,-11.06 -23.43,-18.35l-94.19,128.44h44.22z" />
		</g>
	</g>
	<g id="Layer">
	</g>
	<g id="Layer">
	</g>
	<g id="Layer">
	</g>
	<g id="Layer">
	</g>
	<g id="Layer">
	</g>
	<g id="Layer">
	</g>
	<g id="Layer">
	</g>
	<g id="Layer">
	</g>
	<g id="Layer">
	</g>
	<g id="Layer">
	</g>
	<g id="Layer">
	</g>
	<g id="Layer">
	</g>
	<g id="Layer">
	</g>
	<g id="Layer">
	</g>
	<g id="Layer">
	</g>
</svg>