<svg xmlns="http://www.w3.org/2000/svg" viewBox="0 0 512 512" width="512" height="512">
	<style>
		tspan { white-space:pre }
		.shp0 { fill: #45938b } 
	</style>
	<g id="Layer">
		<g id="Layer">
			<path id="Layer" class="shp0" d="M512,75.09v50.76c0,12.5 -10.17,22.66 -22.67,22.66h-4.92v288.41c0,12.5 -10.17,22.67 -22.67,22.67h-411.5c-12.5,0 -22.66,-10.17 -22.66,-22.67v-288.41h-4.92c-12.5,0 -22.66,-10.17 -22.66,-22.66v-50.76c0,-12.5 10.17,-22.66 22.67,-22.66h466.67c12.5,0 22.67,10.17 22.66,22.67zM461.77,436.91l-0.01,-288.4h-411.5v288.41h411.5c0.01,0 0.01,0 0.01,0zM489.35,125.84l-0.01,-50.76h-466.67v50.76h466.67c0.01,0 0.02,0 0.02,0z" />
		</g>
	</g>
	<g id="Layer">
		<g id="Layer">
			<path id="Layer" class="shp0" d="M318.92,329.58v38.95c0,18.12 -14.74,32.87 -32.87,32.87h-60.11c-18.12,0 -32.87,-14.74 -32.87,-32.87v-38.95c0,-15.46 10.73,-28.46 25.14,-31.94v-24.68c0,-20.83 16.95,-37.78 37.78,-37.78c20.83,0 37.78,16.95 37.78,37.78v24.68c14.41,3.48 25.14,16.48 25.14,31.94zM238.62,272.96v23.75h34.75v-23.75c0,-9.58 -7.79,-17.38 -17.38,-17.38c-9.58,0 -17.38,7.8 -17.38,17.38zM298.52,329.58c0,-6.87 -5.59,-12.47 -12.47,-12.47h-60.1c-6.87,0 -12.47,5.59 -12.47,12.47v38.95c0,6.88 5.59,12.47 12.47,12.47h60.1c6.87,0 12.47,-5.59 12.47,-12.47z" />
		</g>
	</g>
	<g id="Layer">
		<g id="Layer">
			<path id="Layer" class="shp0" d="M190.61,182.69h-98.59c-5.63,0 -10.2,4.57 -10.2,10.2c0,5.63 4.57,10.2 10.2,10.2h98.59c5.63,0 10.2,-4.57 10.2,-10.2c0,-5.63 -4.56,-10.2 -10.2,-10.2z" />
		</g>
	</g>
	<g id="Layer">
		<g id="Layer">
			<path id="Layer" class="shp0" d="M141.31,227.31h-49.29c-5.63,0 -10.2,4.57 -10.2,10.2c0,5.63 4.57,10.2 10.2,10.2h49.29c5.63,0 10.2,-4.57 10.2,-10.2c0,-5.63 -4.57,-10.2 -10.2,-10.2z" />
		</g>
	</g>
	<g id="Layer">
	</g>
	<g id="Layer">
	</g>
	<g id="Layer">
	</g>
	<g id="Layer">
	</g>
	<g id="Layer">
	</g>
	<g id="Layer">
	</g>
	<g id="Layer">
	</g>
	<g id="Layer">
	</g>
	<g id="Layer">
	</g>
	<g id="Layer">
	</g>
	<g id="Layer">
	</g>
	<g id="Layer">
	</g>
	<g id="Layer">
	</g>
	<g id="Layer">
	</g>
	<g id="Layer">
	</g>
</svg>