<svg xmlns="http://www.w3.org/2000/svg" viewBox="0 0 512 512" width="512" height="512">
	<style>
		tspan { white-space:pre }
		.shp0 { fill: #45938b } 
	</style>
	<g id="Layer">
		<g id="Layer">
			<path id="Layer" class="shp0" d="M447.96,103.75v383.01c0,13.92 -11.32,25.24 -25.24,25.24h-333.44c-13.92,0 -25.24,-11.32 -25.24,-25.24v-461.52c0,-13.92 11.32,-25.24 25.24,-25.24h254.93c3.31,0 6.3,1.34 8.47,3.5c0,0 0.01,0 0.01,0.01l91.76,91.77c2.26,2.26 3.45,5.28 3.49,8.35c0,0.04 0.03,0.08 0.03,0.12zM356.19,90.5c0,0.7 0.57,1.26 1.26,1.26h49.57l-50.83,-50.83zM423.98,486.76v-371.02h-66.53c-13.92,0 -25.24,-11.32 -25.24,-25.24v-66.53h-242.94c-0.69,0 -1.26,0.57 -1.26,1.26v461.53c0,0.7 0.57,1.26 1.26,1.26h333.44c0.7,0 1.26,-0.57 1.26,-1.26z" />
		</g>
	</g>
	<g id="Layer">
		<g id="Layer">
			<path id="Layer" class="shp0" d="M362.09,164.01h-212.18c-6.62,0 -11.99,5.37 -11.99,11.99c0,6.62 5.37,11.99 11.99,11.99h212.18c6.62,0 11.99,-5.37 11.99,-11.99c0,-6.62 -5.37,-11.99 -11.99,-11.99z" />
		</g>
	</g>
	<g id="Layer">
		<g id="Layer">
			<path id="Layer" class="shp0" d="M362.09,236.35h-212.18c-6.62,0 -11.99,5.37 -11.99,11.99c0,6.62 5.37,11.99 11.99,11.99h212.18c6.62,0 11.99,-5.37 11.99,-11.99c0,-6.62 -5.37,-11.99 -11.99,-11.99z" />
		</g>
	</g>
	<g id="Layer">
		<g id="Layer">
			<path id="Layer" class="shp0" d="M362.09,308.69h-212.18c-6.62,0 -11.99,5.37 -11.99,11.99c0,6.62 5.37,11.99 11.99,11.99h212.18c6.62,0 11.99,-5.37 11.99,-11.99c0,-6.62 -5.37,-11.99 -11.99,-11.99z" />
		</g>
	</g>
	<g id="Layer">
		<g id="Layer">
			<path id="Layer" class="shp0" d="M256,381.03h-106.09c-6.62,0 -11.99,5.37 -11.99,11.99c0,6.62 5.37,11.99 11.99,11.99h106.09c6.62,0 11.99,-5.37 11.99,-11.99c0,-6.62 -5.37,-11.99 -11.99,-11.99z" />
		</g>
	</g>
	<g id="Layer">
	</g>
	<g id="Layer">
	</g>
	<g id="Layer">
	</g>
	<g id="Layer">
	</g>
	<g id="Layer">
	</g>
	<g id="Layer">
	</g>
	<g id="Layer">
	</g>
	<g id="Layer">
	</g>
	<g id="Layer">
	</g>
	<g id="Layer">
	</g>
	<g id="Layer">
	</g>
	<g id="Layer">
	</g>
	<g id="Layer">
	</g>
	<g id="Layer">
	</g>
	<g id="Layer">
	</g>
</svg>