<svg xmlns="http://www.w3.org/2000/svg" viewBox="0 0 512 512" width="512" height="512">
	<style>
		tspan { white-space:pre }
		.shp0 { fill: #45938b } 
	</style>
	<g id="Layer">
		<g id="Layer">
			<path id="Layer" class="shp0" d="M490.67,238.93v89.69c-0.03,86.77 -58.84,162.07 -142.99,183.13c-0.69,0.17 -1.39,0.26 -2.08,0.26c-0.69,0 -1.39,-0.08 -2.07,-0.26c-84.16,-21.06 -142.97,-96.36 -142.99,-183.12v-89.68c0,-4.71 3.81,-8.53 8.53,-8.53c41.9,-0.02 82.33,-15.24 113.84,-42.85l17.11,-14.8c3.2,-2.77 7.97,-2.77 11.17,0l17.07,14.76c31.56,27.65 72,42.87 113.89,42.89c4.72,0 8.53,3.82 8.53,8.53zM473.6,247.27c-42.97,-1.95 -84.08,-18.42 -116.56,-46.89l-11.44,-9.9l-11.49,9.93c-32.44,28.43 -73.55,44.91 -116.51,46.86v81.35c0.03,78.2 52.55,146.18 128,166.04c75.44,-19.87 127.97,-87.83 128,-166.04z" />
		</g>
	</g>
	<g id="Layer">
		<g id="Layer">
			<path id="Layer" class="shp0" d="M439.46,0h-409.6c-4.71,0 -8.53,3.82 -8.53,8.53v409.6c0,4.72 3.82,8.53 8.53,8.53h204.8v-17.07h-196.27v-392.53h392.53v213.33h17.07v-221.87c0,-4.71 -3.82,-8.53 -8.53,-8.53z" />
		</g>
	</g>
	<g id="Layer">
		<g id="Layer">
			<path id="Layer" class="shp0" d="M38.4,102.4h409.6v-17.07h-409.6z" />
		</g>
	</g>
	<g id="Layer">
		<g id="Layer">
			<path id="Layer" class="shp0" d="M294.4,8.53v153.6c0,4.71 -3.81,8.53 -8.53,8.53h-102.4c-4.71,0 -8.53,-3.82 -8.53,-8.53v-153.6c0,-4.71 3.82,-8.53 8.53,-8.53h102.4c4.72,0 8.53,3.82 8.53,8.53zM277.33,17.07h-85.33v136.53h85.33z" />
		</g>
	</g>
	<g id="Layer">
		<g id="Layer">
			<path id="Layer" class="shp0" d="M441.96,284.1l-96.37,96.37l-36.63,-36.63l-12.07,12.07l42.67,42.67c1.66,1.66 3.85,2.5 6.03,2.5c2.19,0 4.37,-0.84 6.03,-2.5l102.4,-102.4z" />
		</g>
	</g>
	<g id="Layer">
	</g>
	<g id="Layer">
	</g>
	<g id="Layer">
	</g>
	<g id="Layer">
	</g>
	<g id="Layer">
	</g>
	<g id="Layer">
	</g>
	<g id="Layer">
	</g>
	<g id="Layer">
	</g>
	<g id="Layer">
	</g>
	<g id="Layer">
	</g>
	<g id="Layer">
	</g>
	<g id="Layer">
	</g>
	<g id="Layer">
	</g>
	<g id="Layer">
	</g>
	<g id="Layer">
	</g>
</svg>