<?xml version="1.0" encoding="utf-8"?>
<!-- Generator: Adobe Illustrator 21.0.0, SVG Export Plug-In . SVG Version: 6.00 Build 0)  -->
<svg version="1.0" id="Layer_1" xmlns="http://www.w3.org/2000/svg" xmlns:xlink="http://www.w3.org/1999/xlink" x="0px" y="0px"
	 viewBox="0 0 536 536" style="enable-background:new 0 0 536 536;" xml:space="preserve">
<style type="text/css">
	.st0{stroke:#79cfc5;stroke-width:24;stroke-miterlimit:10;}
</style>
<g>
	<g>
		<path fill="#79cfc5" class="st0" d="M268,153.2c-63.3,0-114.8,51.5-114.8,114.8S204.7,382.8,268,382.8S382.8,331.3,382.8,268
			S331.3,153.2,268,153.2z M268,341.4c-40.5,0-73.4-32.9-73.4-73.4s32.9-73.4,73.4-73.4s73.4,32.9,73.4,73.4S308.5,341.4,268,341.4z
			"/>
	</g>
</g>
<g>
	<g>
		<path fill="#79cfc5" class="st0" d="M449,87c-48.4-48.3-112.6-75-181-75l0,0c-68.4,0-132.7,26.6-181,75S12,199.6,12,268s26.6,132.7,75,181
			s112.6,75,181,75l0,0c55.9,0,111.2-18.7,155.6-52.8c9.1-6.9,10.8-19.9,3.8-29c-6.9-9.1-19.9-10.8-29-3.8
			c-37.2,28.5-83.6,44.2-130.5,44.2l0,0c-57.3,0-111.2-22.3-151.8-62.9C75.7,379.2,53.4,325.3,53.4,268
			c0-118.4,96.3-214.6,214.6-214.6l0,0c118.3,0,214.6,96.3,214.6,214.6v23.5c0,27.5-22.4,49.9-49.9,49.9s-49.9-22.4-49.9-49.9V268
			c0-11.4-9.3-20.7-20.7-20.7s-20.7,9.3-20.7,20.7v23.5c0,50.3,40.9,91.3,91.3,91.3s91.3-40.9,91.3-91.3V268
			C524,199.6,497.4,135.3,449,87z"/>
	</g>
</g>
</svg>
