<?xml version="1.0" encoding="utf-8"?>
<!-- Generator: Adobe Illustrator 21.0.0, SVG Export Plug-In . SVG Version: 6.00 Build 0)  -->
<svg version="1.0" id="Capa_1" xmlns="http://www.w3.org/2000/svg" xmlns:xlink="http://www.w3.org/1999/xlink" x="0px" y="0px"
	 viewBox="0 0 512 426.7" style="enable-background:new 0 0 512 426.7;" xml:space="preserve">
<g>
	<g>
		<g>
			<path fill="#45938b" d="M501.3,0h-384c-5.9,0-10.7,4.8-10.7,10.7V32h-32C68.8,32,64,36.8,64,42.7V130c-25.4,8.6-42.7,22.5-42.7,40.6v42.7
				c0.1,3.7,0.9,7.3,2.3,10.7C4.7,234.7,0,247,0,256v42.7c0,20.5,22.2,35.3,53.3,43.9v30.7c0,35,64,53.3,128,53.3s128-18.3,128-53.3
				v-42.7c0-18.9-19-34.2-53.3-43.8v-9.5h202.7c5.9,0,10.7-4.8,10.7-10.7v-32h32c5.9,0,10.7-4.8,10.7-10.7V10.7
				C512,4.8,507.2,0,501.3,0z M85.3,53.3h21.3v66.9c-7.4,1-14.5,2.2-21.3,3.8V53.3z M149.3,138.7c64,0,106.7,19.3,106.7,32
				s-42.7,32-106.7,32s-106.7-19.3-106.7-32S85.3,138.7,149.3,138.7z M248,135.6c-10.1-33.9,9.2-69.5,43.1-79.6s69.5,9.2,79.6,43.1
				s-9.2,69.5-43.1,79.6c-5.9,1.8-12.1,2.7-18.3,2.7c-11.3-0.1-22.3-3.1-32-8.7v-1.9C277.3,155.9,265.9,144.2,248,135.6z
				 M42.7,201.4c24.2,14.9,65.5,22.6,106.7,22.6s82.5-7.7,106.7-22.6v11.9c0,12.7-42.7,32-106.7,32S42.7,226,42.7,213.3V201.4
				L42.7,201.4z M37.5,240.6c23.1,17.2,67.6,26,111.8,26c28.9,0.5,57.7-3.7,85.3-12.5c0.1,0.6,0.1,1.2,0,1.8
				c0,12.7-42.7,32-106.7,32S21.3,268.7,21.3,256C21.3,252.2,26.5,246.3,37.5,240.6z M21.3,298.7v-11.9
				c24.2,14.9,65.5,22.6,106.7,22.6s82.5-7.7,106.7-22.6v11.9c0,12.7-42.7,32-106.7,32S21.3,311.4,21.3,298.7z M288,373.3
				c0,12.7-42.7,32-106.7,32S74.7,386,74.7,373.3v-11.9c24.2,14.9,65.5,22.6,106.7,22.6s82.5-7.7,106.7-22.6L288,373.3L288,373.3z
				 M288,330.7c0,12.7-42.7,32-106.7,32c-26.6,0.5-53.2-3.5-78.5-11.6c8.3,0.6,16.7,1,25.2,1c57.5,0,115.4-15,126.1-43.7
				C278.7,315.8,288,325.4,288,330.7z M448,256H256c0-3.7-0.8-7.3-2.2-10.7c5.2-2.9,9.9-6.5,14.1-10.7H448V256z M490.7,213.3H277.3
				v-17.2c43.7,17.7,93.4-3.4,111.1-47.1S385,55.6,341.3,37.9S247.9,41.3,230.2,85c-4.1,10.3-6.3,21.2-6.2,32.3
				c0,3.2,0.3,6.3,0.6,9.5c-24.6-6.5-49.9-9.7-75.3-9.5c-7.1,0-14.3,0-21.3,0.7V21.3h362.7V213.3L490.7,213.3z"/>
			<path fill="#45938b" d="M160,53.3h21.3V32h-32c-5.9,0-10.7,4.8-10.7,10.7v32H160V53.3z"/>
			<path fill="#45938b" d="M458.7,74.7H480v-32c0-5.9-4.8-10.7-10.7-10.7h-32v21.3h21.3L458.7,74.7L458.7,74.7z"/>
			<path fill="#45938b" d="M480,192v-32h-21.3v21.3h-21.3v21.3h32C475.2,202.7,480,197.9,480,192z"/>
		</g>
	</g>
</g>
</svg>
