<?xml version="1.0" encoding="utf-8"?>
<!-- Generator: Adobe Illustrator 18.1.1, SVG Export Plug-In . SVG Version: 6.00 Build 0)  -->
<svg version="1.1" id="Layer_1" xmlns="http://www.w3.org/2000/svg" xmlns:xlink="http://www.w3.org/1999/xlink" x="0px" y="0px"
	 viewBox="0 0 42 54" enable-background="new 0 0 42 54" xml:space="preserve">
<g>
	<g>
		<g>
			<path fill="none" stroke="#45938b" stroke-width="1.5" stroke-miterlimit="10" d="M2,4.7c0-1.7,1.4-3,3-3h22.3L40,12.3v37.1
				c0,1.7-1.4,3-3,3H5c-1.7,0-3-1.4-3-3V4.7z"/>
		</g>
	</g>
</g>
<g>
	<g>
		<g>
			<path fill="none" stroke="#45938b" stroke-width="1.5" stroke-miterlimit="10" d="M27.3,1.6v7.6c0,1.7,1.4,3,3,3H40"/>
		</g>
	</g>
</g>
<g>
	<g>
		<g>
			<g>
				<path fill="#45938b" d="M14.1,41.7c-0.5,0-1.1-0.2-1.6-0.5c-1.1-0.7-1.3-1.6-1.3-2.2c0.1-2.2,3.1-4.4,5.7-6
					c0.3-1.9,0.5-4,0.4-5.9c-2.2-2-4.6-4.6-4.3-6.7c0.1-0.6,0.4-1.4,1.5-1.9c0.4-0.2,0.8-0.3,1.1-0.3c2.2,0,3.5,2.8,3.6,7.9
					c1.5,1.3,3.2,2.5,4.9,3.5c1.6-0.5,3.7-1.1,5.4-1.1c1.3,0,2.3,0.3,2.9,1c0.3,0.4,0.7,1,0.6,2c-0.1,1.5-1.2,2.4-2.9,2.4
					c-1.9,0-4.4-1.2-6.3-2.2c-1.8,0.6-3.7,1.5-5.3,2.4C18.1,37.7,16.8,41.7,14.1,41.7z M16.5,35.6c-1.3,0.9-4.1,3.1-2.8,3.9
					C15,40.4,16.1,37.1,16.5,35.6z M26.8,30.9c1.3,0.6,4.4,1.9,4.5,0.4C31.5,29.9,28.1,30.5,26.8,30.9z M19.2,31.7c0,0,0.1,0,0.1,0
					c0.9-0.4,1.7-0.8,2.6-1.2c0,0,0.1-0.1,0.1-0.1c-0.8-0.5-1.6-1.1-2.4-1.7c0,0-0.1,0-0.1,0C19.3,29.6,19.3,30.7,19.2,31.7z
					 M15.4,20.1c-1.2,0.5,1,3,1.9,3.9C17.1,22.8,16.6,19.6,15.4,20.1z"/>
			</g>
		</g>
	</g>
</g>
</svg>
