<?xml version="1.0" encoding="utf-8"?>
<!-- Generator: Adobe Illustrator 21.0.0, SVG Export Plug-In . SVG Version: 6.00 Build 0)  -->
<svg version="1.1" id="Capa_1" xmlns="http://www.w3.org/2000/svg" xmlns:xlink="http://www.w3.org/1999/xlink" x="0px" y="0px"
	 viewBox="0 0 94.9 166.1" style="enable-background:new 0 0 94.9 166.1;" xml:space="preserve">
<style type="text/css">
	.st0{fill:#FFFFFF;}
	.st1{fill:#539896;}
	.st2{fill:#1D1D1B;}
</style>
<circle class="st0" cx="47.2" cy="45.5" r="34.4"/>
<path class="st1" d="M80.8,14.1C71.6,4.8,59.4,0,47.5,0C35.3,0,23.1,4.8,13.9,14.1C-1.3,29.2-4.2,53.6,6.1,72.1
	C7.2,74,22.8,100.6,29,115.4c5.5,12.2,18.5,50.7,18.5,50.7S60.5,128,66,115.4C72.7,101,87.9,74,89,72.1C99,53.6,96.4,29.2,80.8,14.1
	z M15,47c0-18.1,14.4-32.6,32.6-32.9C65.3,14.4,80.1,29.2,80.1,47c0,18.1-14.4,32.6-32.6,32.9C29,79.5,15,65.1,15,47z"/>
<g>
	<g>
		<path class="st2" d="M24.2,46.2v-0.4c0-0.4,0-1.1,0.4-1.5v-0.7c0-0.4,0-0.4,0-0.7l0.4-1.5c0.7-2.2,1.5-4.1,3-5.9
			c0.7-1.1,1.5-1.8,2.2-2.6l-1.8-1.8c-0.7,1.1-1.5,1.8-2.2,3c-1.1,1.8-2.2,4.1-3,6.3l-0.4,1.8c0,0.4,0,0.7,0,0.7v0.7
			c0,0.7,0,1.1,0,1.8v0.7C22.8,46.2,24.2,46.2,24.2,46.2z"/>
		<path class="st2" d="M32,31.1l0.4-0.4c1.5-1.1,3.3-2.2,5.2-3.3C37.9,27,38.7,27,39,27c0.4,0,1.1-0.4,1.5-0.4s1.1-0.4,1.5-0.4
			c0.4,0,1.1,0,1.5-0.4c0.7,0,1.1,0,1.8,0v-3c-0.7,0-1.5,0-2.2,0.4c-2.6,0.4-4.4,1.1-6.7,1.8c-1.8,0.7-4.1,2.2-5.5,3.7
			c-0.4,0-0.7,0.4-0.7,0.7L32,31.1z"/>
		<path class="st2" d="M47.5,25.9c0.4,0,0.7,0,1.1,0c3.7,0.4,7,1.8,9.6,3.7c0.7,0.7,1.5,1.1,2.2,1.8l2.2-2.2c-0.7-0.7-1.8-1.5-3-2.2
			c-3-1.8-6.7-3.3-11.1-3.7c-0.4,0-1.1,0-1.5,0l0,0v2.6H47.5z"/>
		<path class="st2" d="M64.6,30.7l-2.2,2.6c0.7,0.7,1.5,1.8,1.8,2.6c1.5,2.2,2.2,4.4,2.6,5.9c0,0.4,0.4,0.7,0.4,1.1
			c0,0.4,0,0.7,0,1.1s0,0.7,0,1.1s0,0.7,0,0.7v0.4h3.7v-0.4c0-0.4,0-0.4,0-0.7c0-0.4,0-0.7-0.4-1.1c0-0.4,0-0.7-0.4-1.5
			c0-0.4-0.4-1.1-0.4-1.5c-0.7-2.2-1.5-4.4-3.3-7C66.4,32.9,65.7,31.8,64.6,30.7z"/>
		<path class="st2" d="M68.6,53.3C68.6,53.6,68.6,53.6,68.6,53.3c-0.7,2.2-1.5,4.4-3,6.7c-0.7,0.7-1.5,1.8-2.2,2.6l0.4,0.4
			c0.7-1.1,1.5-1.8,2.2-3C67.5,57.7,68.3,55.5,68.6,53.3C68.6,53.6,68.6,53.6,68.6,53.3L68.6,53.3z"/>
		<path class="st2" d="M61.6,64.4c-0.7,0.7-1.5,1.5-2.6,1.8c-3,1.8-6.3,3-10,3.7c-0.4,0-0.7,0-1.5,0V71c0.4,0,1.1,0,1.5,0
			c4.1-0.4,7.4-1.8,10.4-4.1C60.5,66.2,61.2,65.5,61.6,64.4L61.6,64.4z"/>
		<path class="st2" d="M28.7,63.3l1.1-1.1c-0.7-0.7-1.5-1.8-1.8-2.6c-1.1-1.8-2.2-3.7-2.6-5.9c-0.4-1.8-0.7-3.3-0.7-5.2h-2.2
			c0,1.8,0.4,4.1,1.1,5.9c0.7,2.2,1.8,4.4,3,6.3C27.2,61.8,27.9,62.5,28.7,63.3z"/>
		<path class="st2" d="M45.3,69.9c-0.7,0-1.5,0-2.2-0.4c-1.8-0.4-4.1-1.1-5.9-1.8s-3.7-2.2-5.2-3.3c-0.4,0-0.4-0.4-0.4-0.4l-1.1,1.1
			c0.4,0.4,0.4,0.4,0.7,0.7c1.8,1.5,3.7,2.6,5.5,3.3c1.8,0.7,4.1,1.5,6.3,1.8c0.7,0,1.5,0,2.2,0.4C45.3,71.4,45.3,69.9,45.3,69.9z"
			/>
	</g>
	<g>
		<polygon class="st1" points="59.4,42.9 56.4,47.7 51.2,47.7 57.2,37.4 53.5,37.4 45.3,51.1 48.7,51.1 49.4,51.1 54.6,51.1 
			50.1,58.5 54.2,58.5 63.5,42.9 		"/>
		<path class="st1" d="M31.6,54.8h11.8l2.2-3.7h-5.9l4.1-4.4l0,0c0.7-1.1,1.1-2.6,1.1-3.7c0-3.3-3-6.3-6.3-6.3c-3.3,0-6.3,3-6.3,6.3
			h3.7c0-1.5,1.1-3,3-3c1.5,0,3,1.1,3,3c0,0.7,0,1.1-0.4,1.5L31.6,54.8z"/>
	</g>
	<polygon class="st1" points="74.2,49.6 57.5,51.1 57.2,49.6 57.5,48.1 	"/>
</g>
</svg>
