<svg xmlns="http://www.w3.org/2000/svg" viewBox="0 0 45 45" width="150" height="150">
	<style>
		tspan { white-space:pre }
		.shp0 { fill: #fff }
	</style>
	<g id="Layer">
		<path id="Layer" class="shp0" d="M44.16,6.6h-32.57l-0.93,-5.42h-8.25c-1.33,0 -2.41,1.08 -2.41,2.41v2.41h6.6l4.25,24.71c0.09,0.54 0.62,0.98 1.17,0.98h28.53c1.33,0 2.41,-1.08 2.41,-2.41v-2.41h-27.88l-0.59,-3.41h22.04c2.66,0 5.17,-2.13 5.61,-4.75z" />
		<path id="Layer" class="shp0" d="M23.64,38.82c0,-2.3 -1.86,-4.16 -4.16,-4.16c-2.3,0 -4.16,1.86 -4.16,4.16c0,2.3 1.86,4.16 4.16,4.16c2.3,0 4.16,-1.86 4.16,-4.16z" />
		<path id="Layer" class="shp0" d="M29.76,38.82c0,2.3 1.86,4.16 4.16,4.16c2.3,0 4.17,-1.87 4.17,-4.16c0,-2.3 -1.87,-4.17 -4.17,-4.17c-2.3,0 -4.16,1.87 -4.16,4.17z" />
	</g>
	<g id="Layer">
	</g>
	<g id="Layer">
	</g>
	<g id="Layer">
	</g>
	<g id="Layer">
	</g>
	<g id="Layer">
	</g>
	<g id="Layer">
	</g>
	<g id="Layer">
	</g>
	<g id="Layer">
	</g>
	<g id="Layer">
	</g>
	<g id="Layer">
	</g>
	<g id="Layer">
	</g>
	<g id="Layer">
	</g>
	<g id="Layer">
	</g>
	<g id="Layer">
	</g>
	<g id="Layer">
	</g>
</svg>
