<svg xmlns="http://www.w3.org/2000/svg" viewBox="0 0 512 512" width="512" height="512">
	<style>
		tspan { white-space:pre }
		.shp0 { fill: #000000 } 
	</style>
	<g id="Layer">
		<g id="Layer">
			<path id="Layer" class="shp0" d="M512,256c0,141.16 -114.84,256 -256,256c-141.16,0 -256,-114.84 -256,-256c0,-141.16 114.84,-256 256,-256c141.16,0 256,114.84 256,256zM494.35,256c0,-131.42 -106.92,-238.34 -238.35,-238.34c-131.42,0 -238.34,106.92 -238.34,238.35c0,131.42 106.92,238.35 238.35,238.35c131.42,0 238.35,-106.92 238.35,-238.35z" />
		</g>
	</g>
	<g id="Layer">
		<g id="Layer">
			<path id="Layer" class="shp0" d="M459.03,256c0,65.53 -31.22,123.9 -79.55,161.05c-0.55,2.2 -1.95,4.19 -4.06,5.44c-1.41,0.83 -2.96,1.23 -4.49,1.23c-0.2,0 -0.4,-0.03 -0.59,-0.04c-32.59,22.29 -71.97,35.35 -114.34,35.35c-42.36,0 -81.73,-13.05 -114.31,-35.33c-1.67,0.09 -3.39,-0.3 -4.94,-1.21c-2.06,-1.22 -3.43,-3.14 -4.01,-5.27c-48.46,-37.14 -79.77,-95.59 -79.77,-161.22c0,-111.95 91.08,-203.03 203.03,-203.03c111.95,0 203.03,91.08 203.03,203.03zM106.65,146.35c29.51,-5.26 87.54,-13.94 149.35,-13.94c61.81,0 119.85,8.68 149.35,13.94c-33.78,-45.88 -88.14,-75.73 -149.35,-75.73c-61.22,0 -115.58,29.84 -149.35,75.73zM93.28,344.73c30.11,-25.94 43.63,-48.81 39.03,-66.21c-6.17,-23.35 -43.92,-36.14 -60.86,-39.82c-0.53,5.7 -0.83,11.47 -0.83,17.3c0,32.12 8.22,62.36 22.66,88.73zM357.85,410.78c-15.2,-23.01 -59.57,-84.16 -101.77,-84.16c-42.25,0 -86.67,61.29 -101.82,84.24c29.23,19.27 64.19,30.52 101.74,30.52c37.6,0 72.6,-11.28 101.85,-30.6zM409.68,359.57c-37.33,-31.68 -52.9,-60.46 -46.26,-85.57c4.59,-17.37 19.25,-31.64 43.57,-42.43c13.41,-5.95 25.94,-9.07 31.09,-10.21c-3.69,-19.42 -10.38,-37.77 -19.63,-54.55c-15.86,-3.25 -86.24,-16.74 -162.45,-16.74c-76.29,0 -146.6,13.48 -162.45,16.74c-9.22,16.73 -15.91,35.03 -19.6,54.38c4.57,0.98 17.74,4.12 31.87,10.38c24.32,10.79 38.98,25.06 43.57,42.43c6.66,25.18 -9.02,54.06 -46.58,85.84c-0.06,0.05 -0.13,0.09 -0.19,0.14c10.38,15.27 23,28.88 37.35,40.44c16.97,-25.69 65.36,-91.45 116.13,-91.45c50.71,0 99.05,65.61 116.07,91.36c14.43,-11.64 27.12,-25.36 37.52,-40.76zM418.99,344.26c14.28,-26.26 22.39,-56.33 22.39,-88.26c0,-5.78 -0.3,-11.48 -0.82,-17.12c-17.32,3.94 -54.04,16.74 -60.07,39.66c-4.56,17.29 8.78,39.99 38.5,65.73z" />
		</g>
	</g>
	<g id="Layer">
		<g id="Layer">
			<path id="Layer" class="shp0" d="M308.97,238.34c0,29.21 -23.76,52.97 -52.97,52.97c-29.21,0 -52.97,-23.76 -52.97,-52.97c0,-29.21 23.76,-52.97 52.97,-52.97c29.21,0 52.97,23.76 52.97,52.97zM291.31,238.34c0,-19.47 -15.84,-35.31 -35.31,-35.31c-19.47,0 -35.31,15.84 -35.31,35.31c0,19.47 15.84,35.31 35.31,35.31c19.47,0 35.31,-15.84 35.31,-35.31z" />
		</g>
	</g>
	<g id="Layer">
	</g>
	<g id="Layer">
	</g>
	<g id="Layer">
	</g>
	<g id="Layer">
	</g>
	<g id="Layer">
	</g>
	<g id="Layer">
	</g>
	<g id="Layer">
	</g>
	<g id="Layer">
	</g>
	<g id="Layer">
	</g>
	<g id="Layer">
	</g>
	<g id="Layer">
	</g>
	<g id="Layer">
	</g>
	<g id="Layer">
	</g>
	<g id="Layer">
	</g>
	<g id="Layer">
	</g>
</svg>