<svg xmlns="http://www.w3.org/2000/svg" viewBox="0 0 512 512" width="512" height="512">
	<style>
		tspan { white-space:pre }
		.shp0 { fill: #000000 } 
	</style>
	<g id="Layer">
		<g id="Layer">
			<path id="Layer" class="shp0" d="M512,264.84v17.63c0,19.48 -15.84,35.32 -35.31,35.32h-229.52v70.62c0,4.88 -3.95,8.83 -8.83,8.83h-44.14v52.88c0,29.25 -23.74,53.05 -52.92,53.05h-88.36c-29.18,0 -52.92,-23.8 -52.92,-53.05v-370.59c0,-0.02 0,-0.04 0,-0.07c0,-0.02 0,-0.03 0,-0.05c0.06,-29.2 23.78,-52.93 52.92,-52.93h88.36c29.14,0 52.86,23.74 52.92,52.94c0,0.02 0,0.03 0,0.05c0,0.02 0,0.04 0,0.07v70.54h44.14c4.88,0 8.83,3.95 8.83,8.83v70.62h88.28v-17.66c-14.61,-0.03 -26.48,-11.89 -26.48,-26.48c0,-6.79 2.59,-12.96 6.81,-17.65c-4.22,-4.69 -6.81,-10.87 -6.81,-17.65c0,-6.79 2.59,-12.96 6.81,-17.65c-4.22,-4.69 -6.81,-10.87 -6.81,-17.66c0,-6.79 2.59,-12.96 6.81,-17.65c-4.22,-4.69 -6.81,-10.87 -6.81,-17.65c0,-14.6 11.9,-26.48 26.53,-26.48h8.78v-13.24c0,-17.04 13.9,-30.9 30.98,-30.9h8.65c17.08,0 30.98,13.86 30.98,30.9v13.24h8.78c14.63,0 26.53,11.88 26.53,26.48c0,6.79 -2.59,12.96 -6.81,17.66c4.22,4.69 6.81,10.87 6.81,17.66c0,6.79 -2.59,12.96 -6.81,17.66c4.22,4.69 6.81,10.87 6.81,17.66c0,6.79 -2.59,12.96 -6.81,17.66c4.22,4.69 6.81,10.87 6.81,17.66c0,14.58 -11.88,26.45 -26.48,26.48v17.66h52.97c19.47,0 35.31,15.85 35.31,35.33zM176.55,128.76v-28l-30.15,30.16c-1.72,1.72 -3.98,2.59 -6.24,2.59c-2.26,0 -4.52,-0.86 -6.24,-2.59c-3.45,-3.45 -3.45,-9.04 0,-12.48l42.46,-42.46c-1.78,-17.85 -16.84,-31.83 -35.09,-31.83h-88.36c-18.25,0 -33.3,13.98 -35.09,31.83l42.46,42.46c3.45,3.45 3.45,9.04 0,12.49c-1.72,1.72 -3.98,2.59 -6.24,2.59c-2.26,0 -4.52,-0.86 -6.24,-2.59l-30.15,-30.16v28l42.64,42.64c3.45,3.45 3.45,9.04 0,12.49c-1.72,1.72 -3.98,2.59 -6.24,2.59c-2.26,0 -4.52,-0.86 -6.24,-2.59l-30.16,-30.15v28l42.64,42.64c3.45,3.45 3.45,9.04 0,12.49c-1.72,1.72 -3.98,2.59 -6.24,2.59c-2.26,0 -4.52,-0.86 -6.24,-2.59l-30.15,-30.15v28l42.64,42.64c3.45,3.45 3.45,9.04 0,12.49c-1.72,1.72 -3.98,2.58 -6.24,2.58c-2.26,0 -4.52,-0.86 -6.24,-2.58l-30.15,-30.16v28l42.64,42.64c3.45,3.45 3.45,9.04 0,12.48c-1.72,1.72 -3.98,2.59 -6.24,2.59c-2.26,0 -4.52,-0.86 -6.24,-2.59l-30.15,-30.16v28l42.63,42.64c3.45,3.45 3.45,9.04 0,12.48c-1.72,1.72 -3.98,2.59 -6.24,2.59c-2.26,0 -4.52,-0.86 -6.24,-2.59l-30.15,-30.15v28l42.64,42.64c3.45,3.45 3.45,9.04 0,12.48c-1.72,1.72 -3.98,2.59 -6.24,2.59c-2.26,0 -4.52,-0.86 -6.24,-2.59l-30.15,-30.15v31.57c0,19.52 15.82,35.39 35.27,35.39h88.36c19.45,0 35.27,-15.88 35.27,-35.39v-31.57l-30.15,30.15c-1.72,1.72 -3.98,2.59 -6.24,2.59c-2.26,0 -4.52,-0.86 -6.24,-2.59c-3.45,-3.45 -3.45,-9.04 0,-12.48l42.64,-42.64v-28l-30.15,30.16c-1.72,1.72 -3.98,2.59 -6.24,2.59c-2.26,0 -4.52,-0.86 -6.24,-2.59c-3.45,-3.45 -3.45,-9.04 0,-12.48l42.64,-42.64v-28l-30.15,30.15c-1.72,1.72 -3.98,2.59 -6.24,2.59c-2.26,0 -4.52,-0.86 -6.24,-2.59c-3.45,-3.45 -3.45,-9.04 0,-12.48l42.64,-42.64v-28l-30.15,30.15c-1.72,1.72 -3.98,2.58 -6.24,2.58c-2.26,0 -4.52,-0.86 -6.24,-2.58c-3.45,-3.45 -3.45,-9.04 0,-12.49l42.64,-42.64v-28l-30.15,30.16c-1.72,1.72 -3.98,2.59 -6.24,2.59c-2.26,0 -4.52,-0.86 -6.24,-2.59c-3.45,-3.45 -3.45,-9.04 0,-12.49l42.64,-42.64v-28l-30.15,30.16c-1.72,1.72 -3.98,2.59 -6.24,2.59c-2.26,0 -4.52,-0.86 -6.24,-2.59c-3.45,-3.45 -3.45,-9.04 0,-12.48l42.64,-42.64zM229.52,167.72h-35.31v211.86h35.31zM361.93,52.97h35.31v-13.24c0,-7.3 -5.98,-13.24 -13.33,-13.24h-8.65c-7.35,0 -13.33,5.94 -13.33,13.24zM326.62,79.45c0,4.95 3.9,8.83 8.88,8.83h88.17c4.9,0 8.88,-3.96 8.88,-8.83c0,-4.95 -3.9,-8.83 -8.88,-8.83h-88.17c-4.9,0 -8.88,3.96 -8.88,8.83zM326.62,114.76c0,4.95 3.9,8.83 8.88,8.83h88.17c4.9,0 8.88,-3.96 8.88,-8.83c0,-4.95 -3.9,-8.83 -8.88,-8.83h-88.17c-4.9,0 -8.88,3.96 -8.88,8.83zM326.62,150.07c0,4.95 3.9,8.83 8.88,8.83h88.17c4.9,0 8.88,-3.96 8.88,-8.83c0,-4.95 -3.9,-8.83 -8.88,-8.83h-88.17c-4.9,0 -8.88,3.96 -8.88,8.83zM335.5,194.21h88.17c4.9,0 8.88,-3.96 8.88,-8.83c0,-4.95 -3.9,-8.83 -8.88,-8.83h-88.17c-4.9,0 -8.88,3.96 -8.88,8.83c0,4.95 3.9,8.83 8.88,8.83zM353.1,211.86v17.66h52.97v-17.65zM494.34,282.47v-17.63c0,-9.74 -7.92,-17.67 -17.65,-17.67h-229.52v52.97h229.52c9.73,0 17.65,-7.93 17.65,-17.67z" />
		</g>
	</g>
	<g id="Layer">
	</g>
	<g id="Layer">
	</g>
	<g id="Layer">
	</g>
	<g id="Layer">
	</g>
	<g id="Layer">
	</g>
	<g id="Layer">
	</g>
	<g id="Layer">
	</g>
	<g id="Layer">
	</g>
	<g id="Layer">
	</g>
	<g id="Layer">
	</g>
	<g id="Layer">
	</g>
	<g id="Layer">
	</g>
	<g id="Layer">
	</g>
	<g id="Layer">
	</g>
	<g id="Layer">
	</g>
</svg>