<svg xmlns="http://www.w3.org/2000/svg" viewBox="0 0 81 101" width="81" height="101">
	<style>
		tspan { white-space:pre }
		.shp0 { fill: #1d1d1b } 
	</style>
	<g id="Layer">
		<path id="Layer" class="shp0" d="M56.8,17.8c0,9.8 -7.3,22.5 -16.4,22.5c-9.1,0 -16.4,-12.7 -16.4,-22.5c0,-9.8 7.4,-17.8 16.4,-17.8c9,0 16.4,8 16.4,17.8z" />
		<path id="Layer" class="shp0" d="M78,73.8c-3.4,-23.5 -13.6,-25 -19.8,-25l-17.5,-2.1h-0.3l-17.5,2.1c-6.2,0 -16.4,1.5 -19.8,25l-3.1,15.8c3.1,2.8 6.5,5.3 10.2,7.3l2.7,1.4c6.2,3 48.9,3 55.2,0l2.7,-1.4c3.6,-2 7,-4.4 10.2,-7.3z" />
	</g>
</svg>