<?xml version="1.0" encoding="utf-8"?>
<!-- Generator: Adobe Illustrator 21.0.0, SVG Export Plug-In . SVG Version: 6.00 Build 0)  -->
<svg version="1.0" id="Capa_1" xmlns="http://www.w3.org/2000/svg" xmlns:xlink="http://www.w3.org/1999/xlink" x="0px" y="0px"
	 viewBox="0 0 486.8 479.2" style="enable-background:new 0 0 486.8 479.2;" xml:space="preserve">
<g>
	<g>
		<g>
			<path d="M324.9,33.2c1.3-1,2.7-1.2,3.6-1.2c0.9,0,3.3,0.3,5,2.5l46.2,63h40.2l-60.3-82.2c-12.1-16.5-37.3-20.4-53.9-8.3l-21.8,16
				l19.2,26.1L324.9,33.2z"/>
			<path d="M213.5,33.2c1.3-1,2.7-1.2,3.6-1.2c0.9,0,3.3,0.3,5,2.5l46.2,63h40.2l-60.3-82.2c-12.1-16.5-37.3-20.4-53.9-8.3
				L70.8,97.5h54.8L213.5,33.2z"/>
			<path d="M261.4,304.6c0-39.7,32.3-71.9,71.9-71.9h121.7v-73.1c0-16.4-13.3-29.6-29.6-29.6H29.6C13.3,129.9,0,143.2,0,159.6v290
				c0,16.4,13.3,29.6,29.6,29.6h395.8c16.4,0,29.6-13.3,29.6-29.6v-73.1H333.4C293.7,376.5,261.4,344.2,261.4,304.6z"/>
			<path d="M471.1,256.9H333.4c-26.3,0-47.6,21.3-47.6,47.6c0,26.3,21.3,47.6,47.6,47.6h137.7c8.7,0,15.7-7.1,15.7-15.7v-63.8
				C486.8,264,479.8,256.9,471.1,256.9z"/>
		</g>
	</g>
</g>
</svg>
